<svg width="874" height="510" viewBox="0 0 874 510" fill="none" xmlns="http://www.w3.org/2000/svg">
<g clip-path="url(#clip0)">
<g opacity="0.5">
<path opacity="0.5" d="M0 0V25.71V509.56H734.81V25.71V0H0Z" fill="url(#paint0_linear)"/>
</g>
<path d="M727.02 31.71H10.9V500.5H727.02V31.71Z" fill="#606060"/>
<path d="M727.02 9.40997H10.9V43.9H727.02V9.40997Z" fill="#D8D8D8"/>
<path d="M38.15 34.49C42.7671 34.49 46.51 30.7471 46.51 26.13C46.51 21.5129 42.7671 17.77 38.15 17.77C33.5329 17.77 29.79 21.5129 29.79 26.13C29.79 30.7471 33.5329 34.49 38.15 34.49Z" fill="#FF5252"/>
<path d="M61.15 34.49C65.7671 34.49 69.51 30.7471 69.51 26.13C69.51 21.5129 65.7671 17.77 61.15 17.77C56.5329 17.77 52.79 21.5129 52.79 26.13C52.79 30.7471 56.5329 34.49 61.15 34.49Z" fill="#FFFF00"/>
<path d="M84.14 34.49C88.7571 34.49 92.5 30.7471 92.5 26.13C92.5 21.5129 88.7571 17.77 84.14 17.77C79.5229 17.77 75.78 21.5129 75.78 26.13C75.78 30.7471 79.5229 34.49 84.14 34.49Z" fill="#69F0AE"/>
<path opacity="0.5" d="M433.51 157.05H301.81V171.16H433.51V157.05Z" fill="#4A9CFF"/>
<path d="M350.94 217.67H206.7V231.78H350.94V217.67Z" fill="#E0E0E0"/>
<path d="M384.39 231.79L528.63 231.79V217.68L384.39 217.68V231.79Z" fill="#3AD29F"/>
<path d="M528.1 247.98H206.17V262.09H528.1V247.98Z" fill="#E0E0E0"/>
<path d="M528.1 278.3H206.17V292.41H528.1V278.3Z" fill="#E0E0E0"/>
<path d="M434.04 343.1H300.25V369.23H434.04V343.1Z" fill="url(#paint1_linear)"/>
<path d="M432.99 345.48H301.29V366.86H432.99V345.48Z" fill="#4A9CFF"/>
<g opacity="0.5">
<path opacity="0.5" d="M725.74 400.02C794.776 400.02 850.74 344.056 850.74 275.02C850.74 205.984 794.776 150.02 725.74 150.02C656.704 150.02 600.74 205.984 600.74 275.02C600.74 344.056 656.704 400.02 725.74 400.02Z" fill="url(#paint2_linear)"/>
</g>
<path d="M725.74 392.02C790.357 392.02 842.74 339.637 842.74 275.02C842.74 210.403 790.357 158.02 725.74 158.02C661.123 158.02 608.74 210.403 608.74 275.02C608.74 339.637 661.123 392.02 725.74 392.02Z" fill="#F5F5F5"/>
<g opacity="0.5">
<path opacity="0.5" d="M742.05 246.95L739.8 246.15L739.68 246.35H739.55V240.25C739.551 239.513 739.494 238.778 739.38 238.05C743.011 235.377 745.79 231.709 747.38 227.49C750.519 223.419 752.455 218.551 752.968 213.436C753.481 208.322 752.551 203.166 750.283 198.553C748.015 193.94 744.5 190.055 740.136 187.338C735.773 184.621 730.735 183.181 725.595 183.181C720.455 183.181 715.417 184.621 711.054 187.338C706.69 190.055 703.175 193.94 700.907 198.553C698.64 203.166 697.709 208.322 698.222 213.436C698.735 218.551 700.671 223.419 703.81 227.49C705.4 231.709 708.179 235.377 711.81 238.05C711.696 238.778 711.639 239.513 711.64 240.25V246.93C699.602 250.247 688.985 257.425 681.423 267.361C673.86 277.298 669.77 289.443 669.78 301.93V351.93H783.78V301.93C783.794 289.463 779.72 277.336 772.183 267.405C764.646 257.475 754.061 250.29 742.05 246.95Z" fill="url(#paint3_linear)"/>
</g>
<path d="M726.74 245.71C733.947 245.71 741.083 247.13 747.742 249.888C754.4 252.645 760.45 256.688 765.546 261.784C770.642 266.88 774.685 272.93 777.443 279.588C780.2 286.247 781.62 293.383 781.62 300.59V348.75H671.86V300.59C671.86 286.035 677.642 272.076 687.934 261.784C698.226 251.492 712.185 245.71 726.74 245.71V245.71Z" fill="#4A9CFF"/>
<path d="M739.06 241.24C739.06 233.817 733.043 227.8 725.62 227.8C718.197 227.8 712.18 233.817 712.18 241.24V247.96C712.18 255.383 718.197 261.4 725.62 261.4C733.043 261.4 739.06 255.383 739.06 247.96V241.24Z" fill="#FDA57D"/>
<path opacity="0.05" d="M702.86 251.66L711.87 270.98L720.83 262.02L711.87 248.3L702.86 251.66Z" fill="black"/>
<path d="M703.17 250.72L712.17 270.04L721.17 261.04L712.17 247.32L708.05 248.58C707.648 248.703 707.254 248.849 706.87 249.02L703.17 250.72Z" fill="white"/>
<path opacity="0.05" d="M748.42 250.72L739.37 270.98L730.41 262.02L739.62 247.57L748.42 250.72Z" fill="black"/>
<path d="M748.11 249.78L739.11 270.05L730.11 261.05L739.32 246.6L741.01 247.08C742.832 247.603 744.619 248.241 746.36 248.99L748.11 249.78Z" fill="white"/>
<path d="M720.47 260.37L725.48 267.68L730.77 260.37H720.47Z" fill="#FDA57D"/>
<path opacity="0.1" d="M692.49 286.85C692.49 286.85 687.15 339.95 690.6 343.41Z" fill="black"/>
<path opacity="0.1" d="M758.47 286.85C758.47 286.85 763.81 339.95 760.36 343.41Z" fill="black"/>
<path opacity="0.05" d="M725.62 244.1C730.385 244.113 735.029 242.599 738.87 239.78C738.366 236.623 736.753 233.75 734.321 231.675C731.889 229.6 728.797 228.46 725.6 228.46V228.46C722.407 228.465 719.32 229.607 716.892 231.681C714.464 233.756 712.854 236.627 712.35 239.78C716.197 242.603 720.848 244.118 725.62 244.1V244.1Z" fill="black"/>
<path d="M725.62 239.26C740.244 239.26 752.1 227.404 752.1 212.78C752.1 198.155 740.244 186.3 725.62 186.3C710.995 186.3 699.14 198.155 699.14 212.78C699.14 227.404 710.995 239.26 725.62 239.26Z" fill="black"/>
<path d="M725.62 243.48C737.991 243.48 748.02 233.451 748.02 221.08C748.02 208.709 737.991 198.68 725.62 198.68C713.249 198.68 703.22 208.709 703.22 221.08C703.22 233.451 713.249 243.48 725.62 243.48Z" fill="#FDA57D"/>
<path opacity="0.05" d="M707.57 198.87L713.23 205.78C713.23 205.78 738.05 207.98 740.88 202.32C743.71 196.66 724.54 192.58 724.54 192.58L707.57 198.87Z" fill="black"/>
<path d="M707.57 198.24L713.23 205.15C713.23 205.15 738.05 207.35 740.88 201.69C743.71 196.03 724.54 191.95 724.54 191.95L707.57 198.24Z" fill="black"/>
<path d="M703.17 222.44C704.037 222.44 704.74 221.173 704.74 219.61C704.74 218.047 704.037 216.78 703.17 216.78C702.303 216.78 701.6 218.047 701.6 219.61C701.6 221.173 702.303 222.44 703.17 222.44Z" fill="#FDA57D"/>
<path d="M748.1 222.44C748.967 222.44 749.67 221.173 749.67 219.61C749.67 218.047 748.967 216.78 748.1 216.78C747.233 216.78 746.53 218.047 746.53 219.61C746.53 221.173 747.233 222.44 748.1 222.44Z" fill="#FDA57D"/>
<g opacity="0.5">
<path opacity="0.5" d="M873.74 208.09H842.67V177.03H824.81V208.09H793.74V225.96H824.81V257.02H842.67V225.96H873.74V208.09Z" fill="url(#paint4_linear)"/>
</g>
<path d="M841.33 183.02H826.15V251.02H841.33V183.02Z" fill="#3AD29F"/>
<path d="M867.74 224.62V209.44H799.74V224.62H867.74Z" fill="#3AD29F"/>
</g>
<defs>
<linearGradient id="paint0_linear" x1="367.4" y1="509.56" x2="367.4" y2="0" gradientUnits="userSpaceOnUse">
<stop stop-color="#808080" stop-opacity="0.25"/>
<stop offset="0.54" stop-color="#808080" stop-opacity="0.12"/>
<stop offset="1" stop-color="#808080" stop-opacity="0.1"/>
</linearGradient>
<linearGradient id="paint1_linear" x1="49419.9" y1="9991.08" x2="49419.9" y2="9308.31" gradientUnits="userSpaceOnUse">
<stop stop-color="#808080" stop-opacity="0.25"/>
<stop offset="0.54" stop-color="#808080" stop-opacity="0.12"/>
<stop offset="1" stop-color="#808080" stop-opacity="0.1"/>
</linearGradient>
<linearGradient id="paint2_linear" x1="182036" y1="100155" x2="182036" y2="37655" gradientUnits="userSpaceOnUse">
<stop stop-color="#808080" stop-opacity="0.25"/>
<stop offset="0.54" stop-color="#808080" stop-opacity="0.12"/>
<stop offset="1" stop-color="#808080" stop-opacity="0.1"/>
</linearGradient>
<linearGradient id="paint3_linear" x1="95617" y1="78271.9" x2="108613" y2="78271.9" gradientUnits="userSpaceOnUse">
<stop stop-color="#808080" stop-opacity="0.25"/>
<stop offset="0.54" stop-color="#808080" stop-opacity="0.12"/>
<stop offset="1" stop-color="#808080" stop-opacity="0.1"/>
</linearGradient>
<linearGradient id="paint4_linear" x1="67492.9" y1="20736.1" x2="67492.9" y2="14336.9" gradientUnits="userSpaceOnUse">
<stop stop-color="#808080" stop-opacity="0.25"/>
<stop offset="0.54" stop-color="#808080" stop-opacity="0.12"/>
<stop offset="1" stop-color="#808080" stop-opacity="0.1"/>
</linearGradient>
<clipPath id="clip0">
<rect width="873.74" height="509.56" fill="white"/>
</clipPath>
</defs>
</svg>
